# xmcd CD database file
#
# Track frame offsets:
#	150
#	16307
#	31532
#	52005
#	68767
#	79022
#	95627
#	115360
#	131432
#	145930
#	159797
#
# Disc length: 2389 seconds
#
# Revision: 0
# Processed by: cddbd v1.5.2PL0 Copyright (c) Steve Scherf et al.
# Submitted via: CDex 1.70beta2
#
DISCID=8509530b
DTITLE=Talley,James - Love Songs And The Blues
DYEAR=1989
DGENRE=Country
TTITLE0=Your Sweet Love
TTITLE1=Whatever Gets You Through Your Love
TTITLE2=I Can´t Surrender
TTITLE3=He Went Back To Texas
TTITLE4=Working Girl
TTITLE5=Little Child
TTITLE6=Up From Georgia
TTITLE7=All Because Of You
TTITLE8=A Collection Of Sorrows
TTITLE9=´Cause I´m In Love With You
TTITLE10=May Your Dreams Come True
EXTD=YEAR: 1989
EXTT0=
EXTT1=
EXTT2=
EXTT3=
EXTT4=
EXTT5=
EXTT6=
EXTT7=
EXTT8=
EXTT9=
EXTT10=
PLAYORDER=
